<svg width="754" height="925" viewBox="0 0 754 925" fill="none" xmlns="http://www.w3.org/2000/svg">
<g clip-path="url(#clip0_683_2)">
<path d="M308.334 0H220.435V42.9379H308.334V0Z" fill="#272425"/>
<path d="M576.927 338.76V464.055H621.514V338.76H664.877V295.823H621.514H576.927V338.76Z" fill="#272425"/>
<path d="M709.413 673.441H664.877V799.603H709.413V673.441Z" fill="#272425"/>
<path d="M133.71 539.426H89.123V627.24H133.71V539.426Z" fill="#272425"/>
<path d="M175.848 627.75H131.261V715.614H175.848V627.75Z" fill="#272425"/>
<path d="M220.435 715.614H175.848V803.428H220.435V715.614Z" fill="#272425"/>
<path d="M220.435 803.428V884V925H265.022H664.877V921.124V884V799.603H620.29V884H265.022V803.428H220.435Z" fill="#272425"/>
<path d="M308.334 42.938V424.585H352.87V251.763H445.666V208.825H352.87V42.938H308.334Z" fill="#272425"/>
<path d="M754 381.647H709.413V673.39H754V381.647Z" fill="#272425"/>
<path d="M445.666 295.823V419.945H490.202V295.823H576.927V252.885H490.202H445.666V295.823Z" fill="#272425"/>
<path d="M220.435 598.224V42.938H175.848V412.958H131.261V372.366H44.587H0V415.304V496.488H44.587V415.304H131.261V455.896H175.848V598.224H220.435Z" fill="#272425"/>
<path d="M709.413 338.76H664.877V381.698H709.413V338.76Z" fill="#272425"/>
<path d="M89.174 496.488H44.587V539.426H89.174V496.488Z" fill="#272425"/>
</g>
<defs>
<clipPath id="clip0_683_2">
<rect width="754" height="925" fill="white"/>
</clipPath>
</defs>
</svg>
